<?xml version="1.0" standalone="no"?>
<!DOCTYPE svg PUBLIC "-//W3C//DTD SVG 1.1//EN" "http://www.w3.org/Graphics/SVG/1.1/DTD/svg11.dtd" >
<svg xmlns="http://www.w3.org/2000/svg" xmlns:xlink="http://www.w3.org/1999/xlink" version="1.1">
<metadata>
Created by FontForge 20161003 at Mon Oct 16 14:37:49 2017
 By www-data
Copyright 1999-2008 Ben Weiner. Licensed under the Open Font License (http://scripts.sil.org/OFL). See accompanying license and FONTLOG.
</metadata>
<defs>
<font id="Acknowledgement" horiz-adv-x="1003" >
  <font-face 
    font-family="Acknowledgement"
    font-weight="500"
    font-stretch="normal"
    units-per-em="1000"
    panose-1="2 0 6 3 0 0 0 0 0 0"
    ascent="800"
    descent="-200"
    x-height="618"
    cap-height="619"
    bbox="-60 -211 1720 818"
    underline-thickness="20"
    underline-position="-153"
    unicode-range="U+0020-FB02"
  />
<missing-glyph horiz-adv-x="500" 
d="M50 0v533h400v-533h-400zM100 50h300v433h-300v-433z" />
    <glyph glyph-name=".notdef" horiz-adv-x="500" 
d="M50 0v533h400v-533h-400zM100 50h300v433h-300v-433z" />
    <glyph glyph-name=".null" horiz-adv-x="0" 
 />
    <glyph glyph-name="nonmarkingreturn" horiz-adv-x="333" 
 />
    <glyph glyph-name="space" unicode=" " horiz-adv-x="200" 
 />
    <glyph glyph-name="exclam" unicode="!" horiz-adv-x="364" 
d="M60 636h259l-27 -413h-205zM65 87q0 45 38.5 76.5t90.5 31.5t91 -32t39 -76q0 -45 -39 -74t-91 -29t-90.5 29t-38.5 74z" />
    <glyph glyph-name="quotedbl" unicode="&#x22;" horiz-adv-x="414" 
d="M55 707h141l-15 -214h-112zM235 707h141l-15 -214h-112z" />
    <glyph glyph-name="numbersign" unicode="#" horiz-adv-x="574" 
d="M252 481l70 14v99l-70 -14v-99zM75 367v76l71 15v99l-71 -15v76l71 15v72l106 22v-71l70 14v72l106 22v-71l71 15v-76l-71 -15v-99l71 15v-76l-71 -15v-72l-106 -22v71l-70 -14v-72l-106 -22v71z" />
    <glyph glyph-name="dollar" unicode="$" horiz-adv-x="782" 
d="M20 -8v254h138v-36q0 -35 41 -60t111 -37v120q-272 42 -272 205q0 50 24.5 89.5t66 63t86 37.5t95.5 20v106h162v-109q82 -17 145 -60v50h138v-245h-138v37q0 61 -145 87v-110q52 -6 90 -14t78 -24.5t65 -39.5t41 -60.5t16 -86.5q0 -85 -73 -138t-217 -64v-89h-162v91
q-93 9 -152 41v-28h-138zM243 460q0 -16 16.5 -23.5t50.5 -12.5v94q-34 -5 -50.5 -18t-16.5 -40zM555 164q0 27 -20 38t-63 16v-106q83 16 83 52z" />
    <glyph glyph-name="percent" unicode="%" horiz-adv-x="1200" 
d="M942 255q-38 0 -59.5 -31t-21.5 -73q0 -41 21.5 -71t59.5 -30q44 0 66 29t22 67q0 109 -88 109zM717 148q0 82 68 135t156 53t154 -53.5t66 -134.5q0 -86 -65 -135.5t-155 -49.5t-157 51.5t-67 133.5zM265 529q-38 0 -59.5 -31t-21.5 -73q0 -41 21.5 -71t59.5 -30
q44 0 66 29t22 67q0 109 -88 109zM40 422q0 82 68 135t156 53t154 -53.5t66 -134.5q0 -86 -65 -135.5t-155 -49.5t-157 51.5t-67 133.5zM240 -76l506 715h210l-506 -715h-210z" />
    <glyph glyph-name="ampersand" unicode="&#x26;" horiz-adv-x="901" 
d="M368 642q51 0 90.5 -14t62.5 -34.5t38 -46t20 -46t5 -37.5q0 -88 -121 -141l148 -119q19 18 27 47h-64v115h263v-115h-72q-7 -80 -66 -137h158v-115h-229l-58 41q-52 -32 -96.5 -47.5t-109.5 -15.5q-321 0 -321 190q0 62 38 110t95 75q-44 48 -44 115q0 84 61.5 129.5
t174.5 45.5zM301 476q0 -12 2.5 -20.5t10 -17t11 -12t17 -12.5l16.5 -11q21 6 39.5 19t26.5 23.5t8 14.5q-2 30 -18 47t-58 17q-55 0 -55 -48zM234 167q0 -25 31.5 -47.5t102.5 -22.5q47 0 88 23l-168 141q-29 -15 -41.5 -36t-12.5 -58z" />
    <glyph glyph-name="quotesingle" unicode="'" horiz-adv-x="286" 
d="M73 707h141l-15 -214h-112z" />
    <glyph glyph-name="parenleft" unicode="(" horiz-adv-x="514" 
d="M483 546q-74 0 -125 -19t-78.5 -55t-39 -78.5t-11.5 -97.5q0 -49 6 -86.5t19.5 -66t33 -47.5t48.5 -31t64.5 -17t81.5 -5h5v-143h-8q-86 0 -152.5 11t-124.5 38t-95.5 71.5t-58.5 114t-21 162.5q0 81 26.5 148t70 111.5t101.5 75t120 44t126 13.5h12v-143z" />
    <glyph glyph-name="parenright" unicode=")" horiz-adv-x="514" 
d="M31 546v143h12q64 0 125.5 -13.5t119.5 -44t101.5 -74.5t70 -110.5t26.5 -146.5q0 -94 -21.5 -164t-59 -114.5t-95.5 -72t-125 -38.5t-153 -11h-5v143h9q70 0 115.5 12t76.5 41t44 77.5t13 122.5q0 44 -6.5 79t-24.5 68t-46 55t-73 35t-104 13z" />
    <glyph glyph-name="asterisk" unicode="*" horiz-adv-x="468" 
d="M38 559l100 34l-100 33l66 84l83 -52l-16 75h130l-19 -74l81 51l67 -84l-100 -33l100 -34l-67 -84l-83 52l16 -75h-130l19 74l-81 -51z" />
    <glyph glyph-name="plus" unicode="+" horiz-adv-x="608" 
d="M50 263v109h186v145h138v-145h184v-109h-184v-146h-138v146h-186z" />
    <glyph glyph-name="comma" unicode="," horiz-adv-x="411" 
d="M59 78q0 46 41.5 78.5t98.5 32.5q27 0 54.5 -8.5t49.5 -22.5t35.5 -35t13.5 -44q0 -58 -30 -99q-21 -30 -50.5 -50.5t-89.5 -51.5l-73 67q12 6 26.5 12.5t23 10.5t14.5 7q-49 7 -81.5 35t-32.5 68z" />
    <glyph glyph-name="hyphen" unicode="-" horiz-adv-x="599" 
d="M166 277v81h268v-81h-268z" />
    <glyph glyph-name="period" unicode="." horiz-adv-x="401" 
d="M60 84q0 44 41.5 74.5t98.5 30.5q58 0 99.5 -30.5t41.5 -74.5q0 -43 -42 -71t-99 -28t-98.5 28t-41.5 71z" />
    <glyph glyph-name="slash" unicode="/" horiz-adv-x="512" 
d="M18 -100l267 789h209l-267 -789h-209z" />
    <glyph glyph-name="zero" unicode="0" horiz-adv-x="820" 
d="M250 296q0 -74 46 -130.5t119 -56.5t114 55.5t41 130.5q0 43 -7 79.5t-23 71t-48 54.5t-77 20q-58 0 -97 -35.5t-53.5 -83.5t-14.5 -105zM16 307q0 96 58.5 173t149 117t191.5 40q100 0 188.5 -40.5t145 -117.5t56.5 -172q0 -77 -33 -140t-88.5 -102.5t-124.5 -60.5
t-144 -21q-99 0 -188.5 36t-150 112t-60.5 176z" />
    <glyph glyph-name="one" unicode="1" horiz-adv-x="720" 
d="M148 406v112q60 5 85 27t30 74h204v-494h106v-125h-419v125h107v281h-113z" />
    <glyph glyph-name="two" unicode="2" horiz-adv-x="820" 
d="M30 0v105q0 29 13 55t34 46.5t51.5 39.5t60.5 32.5t66 26t63.5 20t56.5 14.5q93 22 119.5 37.5t26.5 55.5q0 10 -0.5 15.5t-3 15t-7 15t-14.5 13t-23.5 11t-34.5 6.5t-48 3q-58 0 -88.5 -23.5t-30.5 -80.5h-224q0 50 23.5 90.5t60 66t84.5 42.5t93 24t88 7
q83 0 146 -10.5t113 -34t76 -65t26 -101.5q0 -38 -10.5 -67t-27.5 -49.5t-49 -39t-63 -30.5t-82 -29q-33 -11 -99 -26.5t-107 -29t-54 -31.5h387v117h138v-241h-760z" />
    <glyph glyph-name="three" unicode="3" horiz-adv-x="819" 
d="M553 192q0 21 -12.5 34t-40.5 18t-55 6.5t-74 1.5h-27v142q34 0 52 0.5t44 2t39.5 5t27 9.5t19.5 16t6 23q0 11 -1 18t-8 17.5t-19.5 17t-37.5 11.5t-60 5q-59 0 -91 -24.5t-32 -72.5h-219q0 60 31.5 104t82.5 67t104.5 33.5t108.5 10.5q356 0 356 -192q0 -70 -69 -102
q109 -51 109 -155q0 -211 -393 -211q-47 0 -94 6.5t-96.5 23.5t-86.5 42.5t-61 67t-24 93.5h226q0 -47 42 -77t108 -30q145 0 145 89z" />
    <glyph glyph-name="four" unicode="4" horiz-adv-x="820" 
d="M638 619v-335h167v-124h-167v-35h107v-125h-419v125h106v35h-344l-73 104l431 355h192zM432 284v108l-129 -108h129z" />
    <glyph glyph-name="five" unicode="5" horiz-adv-x="820" 
d="M30 200h225q0 -28 15.5 -49t39.5 -30.5t45.5 -13.5t40.5 -4q88 0 122.5 28t34.5 61q0 30 -3.5 47t-18 37t-49 29.5t-89.5 9.5q-92 0 -158 -73h-165v377h710v-195h-139v49h-413v-80q79 50 186 50q48 0 96 -6.5t99.5 -24t90.5 -43.5t64.5 -69.5t25.5 -97.5
q0 -59 -32.5 -103.5t-89 -70.5t-126.5 -38.5t-152 -12.5q-45 0 -90 5.5t-95 20.5t-87.5 38.5t-62.5 64.5t-25 94z" />
    <glyph glyph-name="six" unicode="6" horiz-adv-x="820" 
d="M292 202q0 -15 6 -31.5t19.5 -34.5t42 -29.5t67.5 -11.5q35 0 60.5 11t37.5 29t17 34t5 32q0 104 -124 104q-67 0 -99 -29t-32 -74zM54 292q0 76 24.5 137t63.5 99.5t92 64t105.5 35.5t107.5 10q43 0 92.5 -10.5t98.5 -31t81.5 -58t32.5 -84.5h-219q0 34 -34.5 52.5
t-81.5 18.5q-99 0 -128 -77q-14 -36 -14 -84q88 62 200 62q76 0 142.5 -28t107.5 -80.5t41 -117.5q0 -223 -351 -223q-153 0 -257 90t-104 225z" />
    <glyph glyph-name="seven" unicode="7" horiz-adv-x="820" 
d="M18 379v240h784v-133q-19 -15 -62 -47.5t-69.5 -53t-60.5 -51.5t-57 -58q-42 -50 -62 -113t-20 -163h-273q0 99 23.5 167.5t65 115.5t122.5 111l105 82h-358v-97h-138z" />
    <glyph glyph-name="eight" unicode="8" horiz-adv-x="821" 
d="M262 183q0 -100 141 -100q48 0 81 11t48 28.5t20.5 32t5.5 28.5q0 45 -35 73.5t-113 28.5q-77 0 -112.5 -28.5t-35.5 -73.5zM283 454q0 -85 133 -85q71 0 96.5 22t25.5 63q0 13 -5 27t-17.5 31t-41.5 27.5t-71 10.5q-41 0 -67.5 -10t-36.5 -27.5t-13 -30t-3 -28.5z
M40 188q0 105 111 156q-71 36 -71 111q0 54 25 91.5t72.5 58t104.5 29t133 8.5q75 0 131.5 -8.5t102 -29t69 -58t23.5 -91.5q0 -75 -71 -111q111 -51 111 -156q0 -211 -371 -211q-370 0 -370 211z" />
    <glyph glyph-name="nine" unicode="9" horiz-adv-x="820" 
d="M274 422q0 -94 125 -94q68 0 99 26t31 68q0 34 -30 65.5t-105 31.5q-37 0 -62.5 -10t-37 -26.5t-16 -31t-4.5 -29.5zM53 163h226q4 -31 24 -47t74 -16q44 0 76.5 14t51 38.5t28 50.5t12.5 56q-84 -52 -195 -52q-76 0 -143 25t-109.5 75.5t-42.5 115.5q0 105 99 159.5
t252 54.5q146 0 253.5 -88.5t107.5 -216.5q0 -95 -31.5 -166t-86 -111.5t-120 -59.5t-142.5 -19q-31 0 -66.5 3t-85.5 15t-88.5 31t-66 55t-27.5 83z" />
    <glyph glyph-name="colon" unicode=":" horiz-adv-x="401" 
d="M60 383q0 48 41.5 82t99.5 34q57 0 98.5 -34t41.5 -82t-41.5 -79t-98.5 -31t-99 31t-42 79zM60 95q0 48 41.5 82t99.5 34q57 0 98.5 -34t41.5 -82t-41.5 -79t-98.5 -31t-99 31t-42 79z" />
    <glyph glyph-name="semicolon" unicode=";" horiz-adv-x="413" 
d="M60 382q0 48 42 82.5t99 34.5t98.5 -34.5t41.5 -82.5q0 -49 -41.5 -80.5t-98.5 -31.5t-99 31.5t-42 80.5zM60 91q0 48 42 82.5t99 34.5t104.5 -34t47.5 -83q0 -34 -6 -58t-24 -50t-52 -50.5t-88 -54.5l-72 71q35 17 63 32q-48 7 -81 37t-33 73z" />
    <glyph glyph-name="less" unicode="&#x3c;" horiz-adv-x="552" 
d="M30 270l373 291l119 -92l-257 -200l257 -200l-119 -91z" />
    <glyph glyph-name="equal" unicode="=" horiz-adv-x="604" 
d="M90 77v106h424v-106h-424zM90 252v106h424v-106h-424z" />
    <glyph glyph-name="greater" unicode="&#x3e;" horiz-adv-x="552" 
d="M30 69l257 200l-257 200l119 92l373 -293l-373 -290z" />
    <glyph glyph-name="question" unicode="?" horiz-adv-x="760" 
d="M237 87q0 45 38.5 76.5t90.5 31.5t90 -31.5t38 -76.5t-38 -74t-90 -29t-90.5 29t-38.5 74zM494 456q0 11 -2.5 18.5t-12.5 17t-36 14.5t-67 5q-34 0 -57 -9.5t-36.5 -33t-13.5 -61.5h-224q0 42 15.5 77t42 59.5t60 43t72 29.5t75.5 16t72 5q171 0 252.5 -42.5
t81.5 -146.5q0 -26 -7.5 -47.5t-22 -37t-30.5 -27t-37 -20t-38 -14.5t-37.5 -12.5t-30.5 -10.5q-24 -11 -34.5 -25.5t-10.5 -46.5h-231q0 95 40 130q15 13 35.5 25t40.5 20.5t38 14t31 7.5q25 4 40.5 10t22 14t8 13.5t1.5 14.5z" />
    <glyph glyph-name="at" unicode="@" horiz-adv-x="900" 
d="M370 269q0 -42 41 -42q25 0 39 9q6 4 17.5 16t18.5 17l25 104q-25 13 -40 13h-5.5h-6.5q-41 0 -65 -38t-24 -79zM449 -43q-197 0 -313 92t-116 251q0 133 132 235.5t320 102.5q193 0 300.5 -84.5t107.5 -226.5q0 -58 -52.5 -110t-123.5 -80t-134 -28q-52 0 -90 56
q-45 -25 -92 -25q-38 0 -69 16t-49.5 45.5t-18.5 67.5q0 87 62 140.5t150 53.5q20 0 33.5 -4t32.5 -17v19l89 -12l-53 -208q0 -14 4 -24.5t11 -17t16 -10t20 -3.5q41 0 79.5 39.5t38.5 99.5q0 53 -22 94t-59.5 64t-82.5 34.5t-97 11.5q-60 0 -110.5 -12t-91.5 -37t-64.5 -70
t-23.5 -105q0 -41 6 -74t18 -57t27 -42.5t36.5 -30.5t42 -19.5t47.5 -11.5t50 -5.5t52 -1.5h18.5h19.5q112 0 176 35q10 -12 35 -37t37 -40q-57 -43 -107.5 -53t-166.5 -11h-25z" />
    <glyph glyph-name="A" unicode="A" horiz-adv-x="987" 
d="M424 281h139l-64 125zM20 0v124h126l310 492l130 34l302 -526h79v-124h-371v124h48l-22 43h-266l-25 -43h60v-124h-371z" />
    <glyph glyph-name="B" unicode="B" horiz-adv-x="920" 
d="M351 124h153q93 0 122.5 14.5t29.5 53.5q0 50 -31 63.5t-133 13.5h-141v-145zM351 383h229q28 9 28 54q0 43 -23 55t-70 12h-164v-121zM522 619q53 0 91.5 -3t80 -13t67.5 -27.5t42.5 -48.5t16.5 -74q0 -57 -47 -98q107 -42 107 -163q0 -42 -15 -74.5t-44 -53t-62.5 -34
t-80.5 -20t-86.5 -8.5t-91.5 -2h-460v124h104v380h-104v115h482z" />
    <glyph glyph-name="C" unicode="C" horiz-adv-x="944" 
d="M20 313q0 105 67.5 180t178 110t253.5 35q71 0 141.5 -21.5t118.5 -50.5v54h139v-297h-139v36q0 62 -77 106t-182 44q-119 0 -187.5 -48.5t-68.5 -147.5q0 -101 72 -152.5t183 -51.5q203 0 260 138h145q0 -41 -20.5 -83.5t-64.5 -83t-126.5 -66t-192.5 -25.5
q-500 0 -500 324z" />
    <glyph glyph-name="D" unicode="D" horiz-adv-x="956" 
d="M351 125h153q108 0 148 44t40 146q0 99 -45 144t-155 45h-141v-379zM40 1v124h104v379h-104v115h448q129 0 222.5 -30.5t149.5 -100t56 -173.5q0 -157 -110.5 -235.5t-305.5 -78.5h-460z" />
    <glyph glyph-name="E" unicode="E" horiz-adv-x="861" 
d="M40 0v124h104v380h-104v115h781v-240h-138v125h-332v-129h228v-115h-228v-136h332v117h138v-241h-781z" />
    <glyph glyph-name="F" unicode="F" horiz-adv-x="861" 
d="M40 0v124h104v380h-104v115h781v-240h-138v125h-332v-129h228v-115h-228v-136h108v-124h-419z" />
    <glyph glyph-name="G" unicode="G" horiz-adv-x="954" 
d="M20 313q0 105 68 180t179.5 110t253.5 35q72 0 147.5 -21.5t122.5 -50.5v54h139v-297h-139v36q0 62 -77 106t-182 44q-121 0 -194.5 -49.5t-73.5 -146.5q0 -100 77 -152t190 -52q160 0 195 76h-128v115h336v-297h-117l-36 49q-95 -63 -259 -63q-502 0 -502 324z" />
    <glyph glyph-name="H" unicode="H" horiz-adv-x="1051" 
d="M40 0v124h104v380h-104v115h419v-115h-108v-129h345v129h-104v115h419v-115h-108v-380h108v-124h-419v124h104v136h-345v-136h108v-124h-419z" />
    <glyph glyph-name="I" unicode="I" horiz-adv-x="499" 
d="M40 0v124h104v380h-104v115h419v-115h-108v-380h108v-124h-419z" />
    <glyph glyph-name="J" unicode="J" horiz-adv-x="680" 
d="M215 226v-69q0 -58 50 -58q35 0 46.5 12.5t11.5 48.5v344h-128v115h443v-115h-108v-335q0 -94 -74.5 -141.5t-178.5 -47.5q-111 0 -177.5 62t-67.5 184h183z" />
    <glyph glyph-name="K" unicode="K" horiz-adv-x="915" 
d="M40 0v124h104v380h-104v115h395v-115h-84v-164l185 168v111h311v-115h-114l-199 -177l240 -203h121v-124h-259l-232 212l-53 -47v-41h84v-124h-395z" />
    <glyph glyph-name="L" unicode="L" horiz-adv-x="861" 
d="M40 0v124h104v380h-104v115h419v-115h-108v-380h332v117h138v-241h-781z" />
    <glyph glyph-name="M" unicode="M" horiz-adv-x="1238" 
d="M40 0v124h104v380h-104v115h280l294 -345l292 339h292v-109h-104v-380h104v-124h-419v124h108v202l-268 -325h-43l-273 326v-203h144v-124h-407z" />
    <glyph glyph-name="N" unicode="N" 
d="M40 0v124h104v380h-104v115h303l353 -325v210h-104v115h371v-115h-108v-504h-131l-421 378v-254h108v-124h-371z" />
    <glyph glyph-name="O" unicode="O" horiz-adv-x="1039" 
d="M264 313q0 -101 72 -152.5t183 -51.5q121 0 189 50.5t68 153.5q0 94 -70 145t-186 51q-119 0 -187.5 -48.5t-68.5 -147.5zM20 313q0 105 67.5 180t178 110t253.5 35t254 -35t178.5 -110t67.5 -180q0 -324 -499 -324q-500 0 -500 324z" />
    <glyph glyph-name="P" unicode="P" horiz-adv-x="860" 
d="M522 619q53 0 91.5 -3t80 -13t67.5 -27.5t42.5 -48.5t16.5 -74q0 -49 -22.5 -84.5t-57 -55t-88 -31t-101.5 -15t-111 -3.5h-89v-140h112v-124h-419v124h100v380h-104v115h482zM351 369h93q74 0 108 6.5t45 19.5t11 42q0 43 -23 55t-70 12h-164v-135z" />
    <glyph glyph-name="Q" unicode="Q" horiz-adv-x="1077" 
d="M264 311q0 -103 72 -155t183 -52q32 0 65 5l-90 73l127 103l126 -87q29 47 29 113q0 95 -70 146t-186 51q-119 0 -187.5 -49t-68.5 -148zM20 311q0 106 67.5 181t178 110.5t253.5 35.5t254 -35.5t178.5 -110.5t67.5 -181q0 -150 -102 -231l140 -97l-184 -111l-155 127
q-84 -16 -198 -16q-500 0 -500 328z" />
    <glyph glyph-name="R" unicode="R" horiz-adv-x="923" 
d="M522 619q53 0 91.5 -3t80 -13t67.5 -27.5t42.5 -48.5t16.5 -74q0 -144 -192 -178l145 -151h110v-124h-260l-223 264h-49v-140h112v-124h-419v124h100v380h-104v115h482zM351 369h93q74 0 108 6.5t45 19.5t11 42q0 23 -6.5 36.5t-21.5 20t-27.5 8t-37.5 2.5
q-6 0 -17.5 0.5t-18.5 0.5q-22 0 -64.5 -0.5t-63.5 -0.5v-135z" />
    <glyph glyph-name="S" unicode="S" horiz-adv-x="822" 
d="M410 518q-85 0 -116 -12t-31 -49q0 -8 5.5 -14t18 -10t22.5 -6.5t30 -5.5q28 -5 75.5 -10t85 -9.5t82.5 -13t78 -23.5t62.5 -38t44.5 -60.5t15 -86.5q0 -95 -92 -148.5t-276 -53.5q-149 0 -236 45v-27h-138v251h138v-36q0 -30 24 -51t63.5 -32t80.5 -15.5t85 -4.5
q54 0 99 14.5t45 43.5q0 13 -4.5 22t-16 14.5t-24 9t-35 6t-43 4t-53.5 4.5t-61 7q-40 5 -77 15t-88.5 31.5t-83 62t-31.5 94.5q0 49 21.5 87t54.5 61t78 38t87.5 20.5t86.5 5.5q67 0 140 -20t111 -47v49h138v-241h-138v36q0 44 -72.5 68.5t-154.5 24.5z" />
    <glyph glyph-name="T" unicode="T" horiz-adv-x="962" 
d="M40 379v240h882v-240h-138v125h-200v-380h132v-124h-467v124h129v380h-200v-125h-138z" />
    <glyph glyph-name="U" unicode="U" 
d="M40 504v115h419v-115h-108v-284q0 -57 40 -83t129 -26h33.5t31.5 1.5t30.5 4.5t25.5 8t23 13t16.5 19.5t12 27.5t3.5 36v283h-104v115h371v-115h-108v-308q0 -30 -10 -58.5t-34.5 -57.5t-62 -51t-98 -35.5t-135.5 -13.5q-93 0 -167 20.5t-117 53t-65 69.5t-22 73v308
h-104z" />
    <glyph glyph-name="V" unicode="V" horiz-adv-x="967" 
d="M10 503v115h371v-115h-47l167 -290l155 290h-70v115h371v-115h-119l-295 -504h-129l-324 504h-80z" />
    <glyph glyph-name="W" unicode="W" horiz-adv-x="1435" 
d="M10 503v115h371v-115h-49l158 -290l128 227l-37 63h-79v115h431v-115h-108l144 -287l144 287h-71v115h383v-115h-131l-282 -504h-131l-183 308l-166 -308h-131l-312 504h-79z" />
    <glyph glyph-name="X" unicode="X" horiz-adv-x="979" 
d="M10 0v115h123l222 187l-245 201h-83v115h359v-115h-27l143 -117l139 117h-50v115h359v-115h-124l-219 -179l278 -209h84v-115h-395v115h27l-146 119l-128 -119h54v-115h-371z" />
    <glyph glyph-name="Y" unicode="Y" horiz-adv-x="967" 
d="M10 503v115h371v-115h-34l154 -153l144 153h-59v115h371v-115h-122l-250 -268v-111h108v-124h-419v124h104v100l-286 279h-82z" />
    <glyph glyph-name="Z" unicode="Z" horiz-adv-x="921" 
d="M40 0v114l520 390h-355v-125h-138v240h781v-104l-487 -391h382v117h138v-241h-841z" />
    <glyph glyph-name="bracketleft" unicode="[" horiz-adv-x="557" 
d="M55 -101v820h447v-116h-240v-577h240v-127h-447z" />
    <glyph glyph-name="backslash" unicode="\" horiz-adv-x="535" 
d="M19 689h193l303 -789h-192z" />
    <glyph glyph-name="bracketright" unicode="]" horiz-adv-x="557" 
d="M55 26h240v577h-240v116h447v-820h-447v127z" />
    <glyph glyph-name="asciicircum" unicode="^" 
d="M276 748l179 70l183 -70l-23 -76l-160 62l-156 -62z" />
    <glyph glyph-name="underscore" unicode="_" horiz-adv-x="608" 
d="M80 -22h448v-81h-448v81z" />
    <glyph glyph-name="grave" unicode="`" horiz-adv-x="230" 
d="M24 721l11 97l179 -70l-23 -76z" />
    <glyph glyph-name="a" unicode="a" horiz-adv-x="1027" 
d="M464 281h139l-64 125zM60 0v124h126l310 501h149l283 -501h79v-124h-371v124h48l-22 43h-266l-25 -43h60v-124h-371z" />
    <glyph glyph-name="b" unicode="b" horiz-adv-x="920" 
d="M351 124h153q93 0 122.5 14.5t29.5 53.5q0 50 -31 63.5t-133 13.5h-141v-145zM351 383h229q28 9 28 54q0 43 -23 55t-70 12h-164v-121zM522 619q53 0 91.5 -3t80 -13t67.5 -27.5t42.5 -48.5t16.5 -74q0 -57 -47 -98q107 -42 107 -163q0 -42 -15 -74.5t-44 -53t-62.5 -34
t-80.5 -20t-86.5 -8.5t-91.5 -2h-460v124h104v380h-104v115h482z" />
    <glyph glyph-name="c" unicode="c" horiz-adv-x="944" 
d="M20 313q0 105 67.5 180t178 110t253.5 35q71 0 141.5 -21.5t118.5 -50.5v54h139v-297h-139v36q0 62 -77 106t-182 44q-119 0 -187.5 -48.5t-68.5 -147.5q0 -101 72 -152.5t183 -51.5q203 0 260 138h145q0 -41 -20.5 -83.5t-64.5 -83t-126.5 -66t-192.5 -25.5
q-500 0 -500 324z" />
    <glyph glyph-name="d" unicode="d" horiz-adv-x="956" 
d="M351 125h153q108 0 148 44t40 146q0 99 -45 144t-155 45h-141v-379zM40 1v124h104v379h-104v115h448q129 0 222.5 -30.5t149.5 -100t56 -173.5q0 -157 -110.5 -235.5t-305.5 -78.5h-460z" />
    <glyph glyph-name="e" unicode="e" horiz-adv-x="861" 
d="M40 0v124h104v380h-104v115h781v-240h-138v125h-332v-129h228v-115h-228v-136h332v117h138v-241h-781z" />
    <glyph glyph-name="f" unicode="f" horiz-adv-x="861" 
d="M40 0v124h104v380h-104v115h781v-240h-138v125h-332v-129h228v-115h-228v-136h108v-124h-419z" />
    <glyph glyph-name="g" unicode="g" horiz-adv-x="954" 
d="M20 313q0 105 68 180t179.5 110t253.5 35q72 0 147.5 -21.5t122.5 -50.5v54h139v-297h-139v36q0 62 -77 106t-182 44q-121 0 -194.5 -49.5t-73.5 -146.5q0 -100 77 -152t190 -52q160 0 195 76h-128v115h336v-297h-117l-36 49q-95 -63 -259 -63q-502 0 -502 324z" />
    <glyph glyph-name="h" unicode="h" horiz-adv-x="1051" 
d="M40 0v124h104v380h-104v115h419v-115h-108v-129h345v129h-104v115h419v-115h-108v-380h108v-124h-419v124h104v136h-345v-136h108v-124h-419z" />
    <glyph glyph-name="i" unicode="i" horiz-adv-x="499" 
d="M40 0v124h104v380h-104v115h419v-115h-108v-380h108v-124h-419z" />
    <glyph glyph-name="j" unicode="j" horiz-adv-x="680" 
d="M215 226v-69q0 -58 50 -58q35 0 46.5 12.5t11.5 48.5v344h-127v115h443v-115h-108v-335q0 -94 -75 -141.5t-179 -47.5q-111 0 -177.5 62t-67.5 184h183z" />
    <glyph glyph-name="k" unicode="k" horiz-adv-x="915" 
d="M40 0v124h104v380h-104v115h395v-115h-84v-164l185 168v111h311v-115h-114l-199 -177l240 -203h121v-124h-259l-284 260v-136h83v-124h-395z" />
    <glyph glyph-name="l" unicode="l" horiz-adv-x="861" 
d="M40 0v124h104v380h-104v115h419v-115h-108v-380h332v117h138v-241h-781z" />
    <glyph glyph-name="m" unicode="m" horiz-adv-x="1238" 
d="M40 0v124h104v380h-104v115h280l294 -345l292 339h292v-109h-104v-380h104v-124h-419v124h108v202l-268 -325h-43l-273 326v-203h144v-124h-407z" />
    <glyph glyph-name="n" unicode="n" 
d="M40 0v124h104v380h-104v115h303l353 -325v210h-104v115h371v-115h-108v-504h-131l-421 378v-254h108v-124h-371z" />
    <glyph glyph-name="o" unicode="o" horiz-adv-x="1039" 
d="M264 313q0 -101 72 -152.5t183 -51.5q121 0 189 50.5t68 153.5q0 94 -70 145t-186 51q-119 0 -187.5 -48.5t-68.5 -147.5zM20 313q0 105 67.5 180t178 110t253.5 35t254 -35t178.5 -110t67.5 -180q0 -324 -499 -324q-500 0 -500 324z" />
    <glyph glyph-name="p" unicode="p" horiz-adv-x="860" 
d="M522 619q53 0 91.5 -3t80 -13t67.5 -27.5t42.5 -48.5t16.5 -74q0 -49 -22.5 -84.5t-57 -55t-88 -31t-101.5 -15t-111 -3.5h-89v-140h112v-124h-419v124h100v380h-104v115h482zM351 369h93q74 0 108 6.5t45 19.5t11 42q0 43 -23 55t-70 12h-164v-135z" />
    <glyph glyph-name="q" unicode="q" horiz-adv-x="1039" 
d="M264 313q0 -44 15 -79.5t40 -58.5t58.5 -38.5t69 -21.5t74.5 -6q79 0 139 24q-7 13 -15 20.5t-20.5 11t-24 4.5t-33.5 1h-14h-14v61q76 8 108 8q14 0 34.5 -4t44 -10t34.5 -7q16 40 16 95q0 94 -70 145t-186 51q-119 0 -187.5 -48.5t-68.5 -147.5zM20 313q0 105 67.5 180
t178 110t253.5 35t254 -35t178.5 -110t67.5 -180q0 -166 -126 -245q3 -29 14 -45.5t38 -16.5q5 0 9 1t7 2.5t6 4t4.5 5t3.5 6.5t3 6.5t2.5 8t2 8t1.5 8t1 7.5v11h67v-66q0 -27 -17.5 -47.5t-45 -30.5t-54 -15t-51.5 -5q-40 0 -68.5 3t-57 12t-47.5 27.5t-29 46.5
q-70 -10 -162 -10q-94 0 -170 11t-138 35t-104 61.5t-65 92t-23 124.5z" />
    <glyph glyph-name="r" unicode="r" horiz-adv-x="923" 
d="M522 620q150 0 224 -36t74 -131q0 -144 -192 -178q5 -2 22.5 -8t30.5 -12t28.5 -17t24 -29t8.5 -41q0 -28 2 -44.5t14.5 -32t36.5 -15.5q23 0 31.5 14t8.5 44v10h67v-66q0 -36 -31 -59.5t-66.5 -31t-70.5 -7.5q-50 0 -83.5 5t-65.5 20.5t-47.5 48t-15.5 83.5
q0 75 -29.5 101t-92.5 26h-49v-140h112v-124h-419v124h100v380h-104v115q81 0 241.5 0.5t240.5 0.5zM351 369h93q74 0 108 6.5t45 19.5t11 42q0 23 -6.5 36.5t-21.5 20t-27.5 8t-37.5 2.5q-24 1 -67 1l-97 -1v-135z" />
    <glyph glyph-name="s" unicode="s" horiz-adv-x="822" 
d="M410 518q-85 0 -116 -12t-31 -49q0 -8 5.5 -14t18 -10t22.5 -6.5t30 -5.5q28 -5 75.5 -10t85 -9.5t82.5 -13t78 -23.5t62.5 -38t44.5 -60.5t15 -86.5q0 -95 -92 -148.5t-276 -53.5q-149 0 -236 45v-27h-138v251h138v-36q0 -30 24 -51t63.5 -32t80.5 -15.5t85 -4.5
q54 0 99 14.5t45 43.5q0 13 -4.5 22t-16 14.5t-24 9t-35 6t-43 4t-53.5 4.5t-61 7q-40 5 -77 15t-88.5 31.5t-83 62t-31.5 94.5q0 49 21.5 87t54.5 61t78 38t87.5 20.5t86.5 5.5q67 0 140 -20t111 -47v49h138v-241h-138v36q0 44 -72.5 68.5t-154.5 24.5z" />
    <glyph glyph-name="t" unicode="t" horiz-adv-x="962" 
d="M40 379v240h882v-240h-138v125h-200v-380h132v-124h-467v124h129v380h-200v-125h-138z" />
    <glyph glyph-name="u" unicode="u" 
d="M40 504v115h419v-115h-108v-284q0 -57 40 -83t129 -26h33.5t31.5 1.5t30.5 4.5t25.5 8t23 13t16.5 19.5t12 27.5t3.5 36v283h-104v115h371v-115h-108v-308q0 -30 -10 -58.5t-34.5 -57.5t-62 -51t-98 -35.5t-135.5 -13.5q-93 0 -167 20.5t-117 53t-65 69.5t-22 73v308
h-104z" />
    <glyph glyph-name="v" unicode="v" horiz-adv-x="967" 
d="M10 503v115h371v-115h-47l167 -290l155 290h-70v115h371v-115h-119l-295 -504h-129l-324 504h-80z" />
    <glyph glyph-name="w" unicode="w" horiz-adv-x="1435" 
d="M10 503v115h371v-115h-49l158 -290l128 227l-37 63h-79v115h431v-115h-108l144 -287l144 287h-71v115h383v-115h-131l-282 -504h-131l-183 308l-166 -308h-131l-312 504h-79z" />
    <glyph glyph-name="x" unicode="x" horiz-adv-x="979" 
d="M10 0v115h123l222 187l-245 201h-83v115h359v-115h-27l143 -117l139 117h-50v115h359v-115h-124l-219 -179l278 -209h84v-115h-395v115h27l-146 119l-128 -119h54v-115h-371z" />
    <glyph glyph-name="y" unicode="y" horiz-adv-x="967" 
d="M10 503v115h371v-115h-34l154 -153l144 153h-59v115h371v-115h-122l-250 -268v-111h108v-124h-419v124h104v100l-286 279h-82z" />
    <glyph glyph-name="z" unicode="z" horiz-adv-x="921" 
d="M40 0v114l520 390h-355v-125h-138v240h781v-104l-487 -391h382v117h138v-241h-841z" />
    <glyph glyph-name="braceleft" unicode="{" horiz-adv-x="547" 
d="M135 29q0 52 -4 87.5t-15 62t-19.5 39.5t-29.5 38.5t-32 41.5v39q11 14 25 28.5t23.5 23.5t20.5 24.5t17 34t10 50t4 73.5q0 20 5.5 39.5t21 42t40 39t67 27.5t97.5 11q68 0 146 -11v-116q-12 0 -32.5 2.5t-42.5 5t-38 2.5q-40 0 -63.5 -16t-23.5 -57q0 -28 -3 -52.5
t-5.5 -41t-10 -33t-11 -24.5t-14 -19.5t-13 -14t-14.5 -12.5l-12 -10v-39q7 -6 23.5 -18t19.5 -15t12.5 -15t10.5 -22t5 -31t4.5 -46.5t0.5 -65.5q1 -75 100 -75q25 0 62.5 5t44.5 5v-117q-95 -15 -138 -15q-116 0 -177.5 40.5t-61.5 104.5z" />
    <glyph glyph-name="bar" unicode="|" horiz-adv-x="527" 
d="M200 -100v789h127v-789h-127z" />
    <glyph glyph-name="braceright" unicode="}" horiz-adv-x="547" 
d="M35 16q7 0 44.5 -5t62.5 -5q100 0 100 75q0 35 1 59t2 42.5t5 31.5t6.5 21.5t10.5 17t12.5 12t17.5 13.5t21 16v39q-3 2 -8 7q-17 13 -26 23t-22.5 32.5t-20 58.5t-6.5 86q0 41 -23 57t-63 16q-21 0 -60.5 -5t-53.5 -5v116q78 11 146 11q66 0 114 -15t72 -40t34.5 -50.5
t10.5 -52.5v-3q0 -62 10 -101.5t20.5 -54t34 -37.5t35.5 -39v-39q-11 -16 -32 -41.5t-29.5 -38.5t-19.5 -39.5t-15 -62t-4 -87.5q0 -64 -61.5 -104.5t-177.5 -40.5q-43 0 -138 15v117z" />
    <glyph glyph-name="asciitilde" unicode="~" horiz-adv-x="530" 
d="M172 498q30 0 65.5 -18t68.5 -35.5t56 -17.5q25 0 36.5 0.5t20 3t10.5 4.5l10 10t15 14l35 -52q-51 -55 -133 -55q-31 0 -60.5 11t-49 24.5t-45 24.5t-49.5 11h-1q-14 0 -21.5 -0.5t-15.5 -5t-9.5 -5.5t-11.5 -11.5t-14 -14.5l-37 54q22 24 58 41t72 17z" />
    <glyph glyph-name="uni00A0" unicode="&#xa0;" horiz-adv-x="0" 
 />
    <glyph glyph-name="exclamdown" unicode="&#xa1;" horiz-adv-x="343" 
d="M45 -16l26 413h206l26 -413h-258zM40 533q0 45 39 74t91 29t90 -29t38 -74t-38 -76.5t-90 -31.5t-91 31.5t-39 76.5z" />
    <glyph glyph-name="cent" unicode="&#xa2;" horiz-adv-x="743" 
d="M55 216q0 101 83 159t219 67v62h97v-65q78 -12 132 -46v38h97v-209h-97v26q0 44 -53.5 74.5t-127.5 30.5q-84 0 -131.5 -34t-47.5 -103q0 -71 50.5 -107t128.5 -36q142 0 181 97h102q0 -26 -12 -53.5t-37.5 -54.5t-73.5 -46.5t-111 -24.5v-97h-97v96q-302 15 -302 226z
" />
    <glyph glyph-name="sterling" unicode="&#xa3;" horiz-adv-x="820" 
d="M375 166q44 0 113.5 -18t81.5 -18q21 0 21 40q0 13 -2 42h188q0 -17 4 -48.5t4 -55.5q0 -55 -41.5 -86t-119.5 -31h-33q-28 3 -94 19.5t-104 16.5q-19 0 -38.5 -1t-34.5 -1.5t-36 -3t-32.5 -4t-35 -5.5t-32 -5.5t-34.5 -6.5t-32.5 -6.5t-36.5 -8t-35 -7.5v164
q11 8 32.5 22.5t32.5 23t24 23t19 30.5h-119v115h109q-15 38 -15 70q0 103 84.5 157t228.5 54q30 0 61 -3.5t63 -12t61 -20.5t55 -31t44.5 -42t29.5 -54t11 -67h-214v12q0 53 -29 72t-84 19q-52 0 -72 -18t-20 -69q0 -10 3 -21t8.5 -25.5t7.5 -20.5h219v-115h-217
q-10 -47 -59 -80q2 0 29 2.5t36 2.5z" />
    <glyph glyph-name="yen" unicode="&#xa5;" horiz-adv-x="967" 
 />
    <glyph glyph-name="brokenbar" unicode="&#xa6;" horiz-adv-x="527" 
d="M200 -100v369h126v-369h-126zM200 398v291h127v-291h-127z" />
    <glyph glyph-name="dieresis" unicode="&#xa8;" 
d="M536 717q0 21 21 36t50 15t50 -15t21 -35q0 -21 -21 -36t-50 -15t-50 15t-21 36v-1zM313 717q0 21 21 36t50 15t50 -15t21 -35q0 -21 -21 -36t-50 -15t-50 15t-21 36v-1z" />
    <glyph glyph-name="copyright" unicode="&#xa9;" horiz-adv-x="1040" 
d="M341 283q0 43 28.5 73t69.5 43.5t89 13.5q71 0 117 -28v21h55v-119h-55v15q0 25 -33.5 43t-74.5 18q-19 0 -36.5 -4.5t-31.5 -14t-22 -25t-8 -36.5q0 -40 29 -60.5t73 -20.5q81 0 104 55h58q0 -38 -39 -70.5t-123 -32.5q-200 0 -200 129zM251 284q0 -55 21.5 -97
t58.5 -67t84.5 -38t103.5 -13q127 0 198.5 53.5t71.5 161.5q0 99 -73.5 152t-195.5 53q-125 0 -197 -51t-72 -154zM70 283q0 95 60.5 162.5t160.5 99t228 31.5q129 0 229 -31.5t161 -99t61 -162.5q0 -78 -31 -135t-91 -91t-141 -50t-187 -16t-187 16t-141 50t-91 91t-31 135
z" />
    <glyph glyph-name="guillemotleft" unicode="&#xab;" horiz-adv-x="952" 
d="M430 230l373 251l119 -52l-257 -200l257 -200l-119 -51zM30 230l373 251l119 -52l-257 -200l257 -200l-119 -51z" />
    <glyph glyph-name="registered" unicode="&#xae;" horiz-adv-x="1040" 
d="M251 284q0 -107 75.5 -161t192.5 -54q127 0 198.5 53.5t71.5 161.5q0 99 -73.5 152t-195.5 53q-125 0 -197 -51t-72 -154zM70 283q0 141 125.5 217t323.5 76t324.5 -76t126.5 -217q0 -292 -450 -292t-450 292zM359 382v46h261q51 -14 51 -67q0 -58 -77 -71l11 -4
q11 -4 16.5 -7t11.5 -12t6 -20q0 -37 22 -37q16 0 16 28h26v-27q0 -21 -21.5 -30t-45.5 -9q-42 0 -61.5 11.5t-21.5 28t-2 33.5t-10 28.5t-38 11.5h-20v-55h45v-50h-168v50h40v152h-41zM483 328h37q43 0 54.5 5t11.5 22t-9 22t-29 5h-65v-54z" />
    <glyph glyph-name="macron" unicode="&#xaf;" 
d="M287 690v78h433v-78h-433z" />
    <glyph glyph-name="degree" unicode="&#xb0;" horiz-adv-x="524" 
d="M185 496q0 -37 22 -64.5t58 -27.5t55 27.5t19 64.5q0 113 -74 113q-42 0 -61 -33.5t-19 -79.5zM484 502q0 -84 -64.5 -134.5t-155.5 -50.5q-90 0 -157 51.5t-67 133.5t68 135t156 53t154 -53.5t66 -134.5z" />
    <glyph glyph-name="plusminus" unicode="&#xb1;" horiz-adv-x="608" 
d="M80 263v109h156v115h138v-115h154v-109h-154v-116h-138v116h-156zM80 38h448v-81h-448v81z" />
    <glyph glyph-name="acute" unicode="&#xb4;" horiz-adv-x="230" 
d="M20 748l179 70l11 -97l-167 -49z" />
    <glyph glyph-name="periodcentered" unicode="&#xb7;" horiz-adv-x="399" 
d="M59 394q0 44 41.5 74.5t99.5 30.5q57 0 98.5 -30.5t41.5 -74.5q0 -43 -41.5 -71t-98.5 -28t-99 28t-42 71z" />
    <glyph glyph-name="cedilla" unicode="&#xb8;" horiz-adv-x="820" 
d="M258 -121h90q0 -25 30 -34t60 1.5t30 31.5q0 27 -11 37t-54 10q-35 0 -63 -30h-66v153h63v-92q32 20 75 20q34 0 65.5 -7.5t58 -30.5t26.5 -58q0 -46 -45.5 -68.5t-114.5 -22.5q-23 0 -45.5 4t-46 13t-38 28t-14.5 45z" />
    <glyph glyph-name="uni00B9" unicode="&#xb9;" horiz-adv-x="410" 
d="M120 546v45q24 2 34 11t12 30h82v-198h42v-50h-168v50h43v112h-45z" />
    <glyph glyph-name="guillemotright" unicode="&#xbb;" horiz-adv-x="952" 
d="M30 29l257 200l-257 200l119 52l373 -251l-373 -252zM430 29l257 200l-257 200l119 52l373 -251l-373 -252z" />
    <glyph glyph-name="onequarter" unicode="&#xbc;" horiz-adv-x="750" 
d="M119 546v45q24 2 34 11t12 30h82v-198h42v-50h-168v50h43v112h-45zM30 60l558 558l90 -89l-558 -558zM653 248v-134h67v-50h-67v-14h43v-50h-168v50h43v14h-138l-29 42l172 142h77zM571 114v43l-52 -43h52z" />
    <glyph glyph-name="onehalf" unicode="&#xbd;" horiz-adv-x="750" 
d="M119 546v45q24 2 34 11t12 30h82v-198h42v-50h-168v50h43v112h-45zM416 0v42q0 60 138 94q37 9 47.5 15t10.5 22q0 7 -1 10.5t-5.5 9.5t-16 8.5t-29.5 2.5q-48 0 -48 -41h-89q0 32 24.5 54t54.5 30t61 8q144 0 144 -85q0 -35 -21 -52t-72 -34q-13 -4 -41 -10.5t-43 -12
t-20 -11.5h155v46h55v-96h-304zM30 60l558 558l90 -89l-558 -558z" />
    <glyph glyph-name="threequarters" unicode="&#xbe;" horiz-adv-x="750" 
d="M30 60l558 558l90 -89l-558 -558zM653 248v-134h67v-50h-67v-14h43v-50h-168v50h43v14h-138l-29 42l172 142h77zM571 114v43l-52 -43h52zM272 467q0 11 -9 16.5t-21 6.5t-35 1h-9h-9v57q21 0 30.5 0.5t22 2.5t17.5 6.5t5 12.5t-2 13t-14 10t-34 5q-49 0 -49 -39h-88
q0 24 12.5 41.5t33 27t42 13.5t43.5 4q142 0 142 -77q0 -28 -28 -40q44 -21 44 -62q0 -85 -157 -85q-24 0 -47.5 4.5t-46.5 14.5t-37 29t-14 45h90q0 -19 17 -30.5t43 -11.5h3q55 0 55 35z" />
    <glyph glyph-name="questiondown" unicode="&#xbf;" horiz-adv-x="789" 
d="M281 168q0 -13 2 -19.5t11.5 -17t36 -15.5t68.5 -5q53 0 80 23.5t27 79.5h224q0 -61 -33 -108t-85.5 -72.5t-108 -37.5t-110.5 -12q-171 0 -252.5 42.5t-80.5 147.5q1 64 41 97t112 55q3 1 15.5 4.5t15.5 4.5t13 4.5t12.5 5.5t10.5 6t10 8t6.5 10t6 12t3 14.5t1.5 18.5
h231q0 -95 -40 -130q-28 -25 -72.5 -44t-72.5 -23q-42 -7 -57 -19t-15 -30zM281 535q0 44 38 73t90 29t90.5 -29t38.5 -73q0 -45 -38.5 -76.5t-90.5 -31.5t-90 31.5t-38 76.5z" />
    <glyph glyph-name="Agrave" unicode="&#xc0;" horiz-adv-x="987" 
d="M424 281h139l-64 125zM20 0v124h126l310 492l130 34l302 -526h79v-124h-371v124h48l-22 43h-266l-25 -43h60v-124h-371zM424 721l11 97l179 -70l-23 -76z" />
    <glyph glyph-name="Aacute" unicode="&#xc1;" horiz-adv-x="987" 
d="M424 281h139l-64 125zM20 0v124h126l310 492l130 34l302 -526h79v-124h-371v124h48l-22 43h-266l-25 -43h60v-124h-371zM420 748l179 70l11 -97l-167 -49z" />
    <glyph glyph-name="Acircumflex" unicode="&#xc2;" horiz-adv-x="987" 
d="M424 281h139l-64 125zM20 0v124h126l310 492l130 34l302 -526h79v-124h-371v124h48l-22 43h-266l-25 -43h60v-124h-371zM346 748l179 70l183 -70l-23 -76l-160 62l-156 -62z" />
    <glyph glyph-name="Atilde" unicode="&#xc3;" horiz-adv-x="987" 
d="M424 281h139l-64 125zM20 0v124h126l310 492l130 34l302 -526h79v-124h-371v124h48l-22 43h-266l-25 -43h60v-124h-371z" />
    <glyph glyph-name="Adieresis" unicode="&#xc4;" horiz-adv-x="987" 
d="M424 281h139l-64 125zM20 0v124h126l310 492l130 34l302 -526h79v-124h-371v124h48l-22 43h-266l-25 -43h60v-124h-371zM596 717q0 21 21 36t50 15t50 -15t21 -35q0 -21 -21 -36t-50 -15t-50 15t-21 36v-1zM373 717q0 21 21 36t50 15t50 -15t21 -35q0 -21 -21 -36
t-50 -15t-50 15t-21 36v-1z" />
    <glyph glyph-name="Aring" unicode="&#xc5;" horiz-adv-x="987" 
d="M424 281h139l-64 125zM20 0v124h126l310 492l130 34l302 -526h79v-124h-371v124h48l-22 43h-266l-25 -43h60v-124h-371z" />
    <glyph glyph-name="Ccedilla" unicode="&#xc7;" horiz-adv-x="944" 
d="M20 313q0 105 67.5 180t178 110t253.5 35q71 0 141.5 -21.5t118.5 -50.5v54h139v-297h-139v36q0 62 -77 106t-182 44q-119 0 -187.5 -48.5t-68.5 -147.5q0 -101 72 -152.5t183 -51.5q203 0 260 138h145q0 -41 -20.5 -83.5t-64.5 -83t-126.5 -66t-192.5 -25.5
q-500 0 -500 324zM448 -121h90q0 -25 30 -34t60 1.5t30 31.5q0 27 -11 37t-54 10q-35 0 -63 -30h-66v153h63v-92q32 20 75 20q34 0 65.5 -7.5t58 -30.5t26.5 -58q0 -46 -45.5 -68.5t-114.5 -22.5q-23 0 -45.5 4t-46 13t-38 28t-14.5 45z" />
    <glyph glyph-name="Egrave" unicode="&#xc8;" horiz-adv-x="861" 
d="M40 0v124h104v380h-104v115h781v-240h-138v125h-332v-129h228v-115h-228v-136h332v117h138v-241h-781zM324 721l11 97l179 -70l-23 -76z" />
    <glyph glyph-name="Eacute" unicode="&#xc9;" horiz-adv-x="861" 
d="M40 0v124h104v380h-104v115h781v-240h-138v125h-332v-129h228v-115h-228v-136h332v117h138v-241h-781zM350 748l179 70l11 -97l-167 -49z" />
    <glyph glyph-name="Ecircumflex" unicode="&#xca;" horiz-adv-x="861" 
d="M40 0v124h104v380h-104v115h781v-240h-138v125h-332v-129h228v-115h-228v-136h332v117h138v-241h-781zM276 748l179 70l183 -70l-23 -76l-160 62l-156 -62z" />
    <glyph glyph-name="Edieresis" unicode="&#xcb;" horiz-adv-x="861" 
d="M40 0v124h104v380h-104v115h781v-240h-138v125h-332v-129h228v-115h-228v-136h332v117h138v-241h-781zM536 717q0 21 21 36t50 15t50 -15t21 -35q0 -21 -21 -36t-50 -15t-50 15t-21 36v-1zM313 717q0 21 21 36t50 15t50 -15t21 -35q0 -21 -21 -36t-50 -15t-50 15t-21 36
v-1z" />
    <glyph glyph-name="Igrave" unicode="&#xcc;" horiz-adv-x="499" 
d="M40 0v124h104v380h-104v115h419v-115h-108v-380h108v-124h-419zM154 721l11 97l179 -70l-23 -76z" />
    <glyph glyph-name="Iacute" unicode="&#xcd;" horiz-adv-x="499" 
d="M40 0v124h104v380h-104v115h419v-115h-108v-380h108v-124h-419zM120 748l179 70l11 -97l-167 -49z" />
    <glyph glyph-name="Icircumflex" unicode="&#xce;" horiz-adv-x="499" 
d="M40 0v124h104v380h-104v115h419v-115h-108v-380h108v-124h-419zM76 748l179 70l183 -70l-23 -76l-160 62l-156 -62z" />
    <glyph glyph-name="Idieresis" unicode="&#xcf;" horiz-adv-x="499" 
d="M40 0v124h104v380h-104v115h419v-115h-108v-380h108v-124h-419zM316 717q0 21 21 36t50 15t50 -15t21 -35q0 -21 -21 -36t-50 -15t-50 15t-21 36v-1zM93 717q0 21 21 36t50 15t50 -15t21 -35q0 -21 -21 -36t-50 -15t-50 15t-21 36v-1z" />
    <glyph glyph-name="Eth" unicode="&#xd0;" horiz-adv-x="956" 
d="M351 125h153q108 0 148 44t40 146q0 99 -45 144t-155 45h-141v-379zM40 1v124h104v379h-104v115h448q129 0 222.5 -30.5t149.5 -100t56 -173.5q0 -157 -110.5 -235.5t-305.5 -78.5h-460zM34 277v81h424v-81h-424z" />
    <glyph glyph-name="Ntilde" unicode="&#xd1;" 
d="M40 0v124h104v380h-104v115h303l353 -325v210h-104v115h371v-115h-108v-504h-131l-421 378v-254h108v-124h-371zM409 798q38 0 100.5 -35.5t89.5 -35.5q39 0 52.5 5t39.5 27l35 -52q-51 -55 -133 -55q-39 0 -77 18t-70.5 35.5t-57.5 17.5q-14 0 -21.5 -0.5t-15 -4.5
t-10 -6t-11.5 -11.5t-14 -14.5l-37 54q22 24 58 41t72 17z" />
    <glyph glyph-name="Ograve" unicode="&#xd2;" horiz-adv-x="1039" 
d="M264 313q0 -101 72 -152.5t183 -51.5q121 0 189 50.5t68 153.5q0 94 -70 145t-186 51q-119 0 -187.5 -48.5t-68.5 -147.5zM20 313q0 105 67.5 180t178 110t253.5 35t254 -35t178.5 -110t67.5 -180q0 -324 -499 -324q-500 0 -500 324zM424 721l11 97l179 -70l-23 -76z" />
    <glyph glyph-name="Oacute" unicode="&#xd3;" horiz-adv-x="1039" 
d="M264 313q0 -101 72 -152.5t183 -51.5q121 0 189 50.5t68 153.5q0 94 -70 145t-186 51q-119 0 -187.5 -48.5t-68.5 -147.5zM20 313q0 105 67.5 180t178 110t253.5 35t254 -35t178.5 -110t67.5 -180q0 -324 -499 -324q-500 0 -500 324zM420 748l179 70l11 -97l-167 -49z
" />
    <glyph glyph-name="Ocircumflex" unicode="&#xd4;" horiz-adv-x="1039" 
d="M264 313q0 -101 72 -152.5t183 -51.5q121 0 189 50.5t68 153.5q0 94 -70 145t-186 51q-119 0 -187.5 -48.5t-68.5 -147.5zM20 313q0 105 67.5 180t178 110t253.5 35t254 -35t178.5 -110t67.5 -180q0 -324 -499 -324q-500 0 -500 324zM336 748l179 70l183 -70l-23 -76
l-160 62l-156 -62z" />
    <glyph glyph-name="Otilde" unicode="&#xd5;" horiz-adv-x="1039" 
d="M264 313q0 -101 72 -152.5t183 -51.5q121 0 189 50.5t68 153.5q0 94 -70 145t-186 51q-119 0 -187.5 -48.5t-68.5 -147.5zM20 313q0 105 67.5 180t178 110t253.5 35t254 -35t178.5 -110t67.5 -180q0 -324 -499 -324q-500 0 -500 324zM409 798q38 0 100.5 -35.5
t89.5 -35.5q39 0 52.5 5t39.5 27l35 -52q-51 -55 -133 -55q-39 0 -77 18t-70.5 35.5t-57.5 17.5q-14 0 -21.5 -0.5t-15 -4.5t-10 -6t-11.5 -11.5t-14 -14.5l-37 54q22 24 58 41t72 17z" />
    <glyph glyph-name="Odieresis" unicode="&#xd6;" horiz-adv-x="1039" 
d="M264 313q0 -101 72 -152.5t183 -51.5q121 0 189 50.5t68 153.5q0 94 -70 145t-186 51q-119 0 -187.5 -48.5t-68.5 -147.5zM20 313q0 105 67.5 180t178 110t253.5 35t254 -35t178.5 -110t67.5 -180q0 -324 -499 -324q-500 0 -500 324z" />
    <glyph glyph-name="multiply" unicode="&#xd7;" horiz-adv-x="603" 
d="M40 209l110 109l-110 108l101 100l110 -108l108 108l100 -100l-108 -108l110 -109l-101 -100l-110 109l-110 -109z" />
    <glyph glyph-name="Ugrave" unicode="&#xd9;" 
d="M40 504v115h419v-115h-108v-284q0 -57 40 -83t129 -26q30 0 45 0.5t39.5 3.5t37.5 10t27.5 18.5t20.5 31t6 46.5v283h-104v115h371v-115h-108v-308q0 -30 -10 -58.5t-34.5 -57.5t-62 -51t-98 -35.5t-135.5 -13.5q-93 0 -167 20.5t-117 53t-65 69.5t-22 73v308h-104z
M424 721l11 97l179 -70l-23 -76z" />
    <glyph glyph-name="Uacute" unicode="&#xda;" 
d="M40 504v115h419v-115h-108v-284q0 -57 40 -83t129 -26q30 0 45 0.5t39.5 3.5t37.5 10t27.5 18.5t20.5 31t6 46.5v283h-104v115h371v-115h-108v-308q0 -30 -10 -58.5t-34.5 -57.5t-62 -51t-98 -35.5t-135.5 -13.5q-93 0 -167 20.5t-117 53t-65 69.5t-22 73v308h-104z
M420 748l179 70l11 -97l-167 -49z" />
    <glyph glyph-name="Ucircumflex" unicode="&#xdb;" 
d="M40 504v115h419v-115h-108v-284q0 -57 40 -83t129 -26q30 0 45 0.5t39.5 3.5t37.5 10t27.5 18.5t20.5 31t6 46.5v283h-104v115h371v-115h-108v-308q0 -30 -10 -58.5t-34.5 -57.5t-62 -51t-98 -35.5t-135.5 -13.5q-93 0 -167 20.5t-117 53t-65 69.5t-22 73v308h-104z
M356 748l179 70l183 -70l-23 -76l-160 62l-156 -62z" />
    <glyph glyph-name="Udieresis" unicode="&#xdc;" 
d="M40 504v115h419v-115h-108v-284q0 -57 40 -83t129 -26q30 0 45 0.5t39.5 3.5t37.5 10t27.5 18.5t20.5 31t6 46.5v283h-104v115h371v-115h-108v-308q0 -30 -10 -58.5t-34.5 -57.5t-62 -51t-98 -35.5t-135.5 -13.5q-93 0 -167 20.5t-117 53t-65 69.5t-22 73v308h-104z
M586 717q0 21 21 36t50 15t50 -15t21 -35q0 -21 -21 -36t-50 -15t-50 15t-21 36v-1zM363 717q0 21 21 36t50 15t50 -15t21 -35q0 -21 -21 -36t-50 -15t-50 15t-21 36v-1z" />
    <glyph glyph-name="Yacute" unicode="&#xdd;" horiz-adv-x="967" 
d="M10 503v115h371v-115h-34l154 -153l144 153h-59v115h371v-115h-122l-250 -268v-111h108v-124h-419v124h104v100l-286 279h-82zM420 748l179 70l11 -97l-167 -49z" />
    <glyph glyph-name="agrave" unicode="&#xe0;" horiz-adv-x="987" 
d="M464 281h139l-64 125zM60 0v124h126l310 501h149l283 -501h79v-124h-371v124h48l-22 43h-266l-25 -43h60v-124h-371zM484 721l11 97l179 -70l-23 -76z" />
    <glyph glyph-name="aacute" unicode="&#xe1;" horiz-adv-x="987" 
d="M464 281h139l-64 125zM60 0v124h126l310 501h149l283 -501h79v-124h-371v124h48l-22 43h-266l-25 -43h60v-124h-371zM480 748l179 70l11 -97l-167 -49z" />
    <glyph glyph-name="acircumflex" unicode="&#xe2;" horiz-adv-x="987" 
d="M464 281h139l-64 125zM60 0v124h126l310 501h149l283 -501h79v-124h-371v124h48l-22 43h-266l-25 -43h60v-124h-371zM386 748l179 70l183 -70l-23 -76l-160 62l-156 -62z" />
    <glyph glyph-name="atilde" unicode="&#xe3;" horiz-adv-x="987" 
d="M464 281h139l-64 125zM60 0v124h126l310 501h149l283 -501h79v-124h-371v124h48l-22 43h-266l-25 -43h60v-124h-371zM469 798q38 0 100.5 -35.5t89.5 -35.5q39 0 52.5 5t39.5 27l35 -52q-51 -55 -133 -55q-39 0 -77 18t-70.5 35.5t-57.5 17.5q-14 0 -21.5 -0.5t-15 -4.5
t-10 -6t-11.5 -11.5t-14 -14.5l-37 54q22 24 58 41t72 17z" />
    <glyph glyph-name="adieresis" unicode="&#xe4;" horiz-adv-x="987" 
d="M464 281h139l-64 125zM60 0v124h126l310 501h149l283 -501h79v-124h-371v124h48l-22 43h-266l-25 -43h60v-124h-371zM616 717q0 21 21 36t50 15t50 -15t21 -35q0 -21 -21 -36t-50 -15t-50 15t-21 36v-1zM393 717q0 21 21 36t50 15t50 -15t21 -35q0 -21 -21 -36t-50 -15
t-50 15t-21 36v-1z" />
    <glyph glyph-name="aring" unicode="&#xe5;" horiz-adv-x="987" 
d="M464 281h139l-64 125zM60 0v124h126l310 501h149l283 -501h79v-124h-371v124h48l-22 43h-266l-25 -43h60v-124h-371z" />
    <glyph glyph-name="ccedilla" unicode="&#xe7;" horiz-adv-x="944" 
d="M20 313q0 105 67.5 180t178 110t253.5 35q71 0 141.5 -21.5t118.5 -50.5v54h139v-297h-139v36q0 62 -77 106t-182 44q-119 0 -187.5 -48.5t-68.5 -147.5q0 -101 72 -152.5t183 -51.5q203 0 260 138h145q0 -41 -20.5 -83.5t-64.5 -83t-126.5 -66t-192.5 -25.5
q-500 0 -500 324zM438 -121h90q0 -25 30 -34t60 1.5t30 31.5q0 27 -11 37t-54 10q-35 0 -63 -30h-66v153h63v-92q32 20 75 20q34 0 65.5 -7.5t58 -30.5t26.5 -58q0 -46 -45.5 -68.5t-114.5 -22.5q-23 0 -45.5 4t-46 13t-38 28t-14.5 45z" />
    <glyph glyph-name="egrave" unicode="&#xe8;" horiz-adv-x="861" 
d="M40 0v124h104v380h-104v115h781v-240h-138v125h-332v-129h228v-115h-228v-136h332v117h138v-241h-781zM354 721l11 97l179 -70l-23 -76z" />
    <glyph glyph-name="eacute" unicode="&#xe9;" horiz-adv-x="861" 
d="M40 0v124h104v380h-104v115h781v-240h-138v125h-332v-129h228v-115h-228v-136h332v117h138v-241h-781zM360 748l179 70l11 -97l-167 -49z" />
    <glyph glyph-name="ecircumflex" unicode="&#xea;" horiz-adv-x="861" 
d="M40 0v124h104v380h-104v115h781v-240h-138v125h-332v-129h228v-115h-228v-136h332v117h138v-241h-781zM276 748l179 70l183 -70l-23 -76l-160 62l-156 -62z" />
    <glyph glyph-name="edieresis" unicode="&#xeb;" horiz-adv-x="861" 
d="M40 0v124h104v380h-104v115h781v-240h-138v125h-332v-129h228v-115h-228v-136h332v117h138v-241h-781zM536 717q0 21 21 36t50 15t50 -15t21 -35q0 -21 -21 -36t-50 -15t-50 15t-21 36v-1zM313 717q0 21 21 36t50 15t50 -15t21 -35q0 -21 -21 -36t-50 -15t-50 15t-21 36
v-1z" />
    <glyph glyph-name="igrave" unicode="&#xec;" horiz-adv-x="499" 
d="M40 0v124h104v380h-104v115h419v-115h-108v-380h108v-124h-419zM174 721l11 97l179 -70l-23 -76z" />
    <glyph glyph-name="iacute" unicode="&#xed;" horiz-adv-x="499" 
d="M40 0v124h104v380h-104v115h419v-115h-108v-380h108v-124h-419zM140 748l179 70l11 -97l-167 -49z" />
    <glyph glyph-name="icircumflex" unicode="&#xee;" horiz-adv-x="499" 
d="M40 0v124h104v380h-104v115h419v-115h-108v-380h108v-124h-419zM76 748l179 70l183 -70l-23 -76l-160 62l-156 -62z" />
    <glyph glyph-name="idieresis" unicode="&#xef;" horiz-adv-x="499" 
d="M40 0v124h104v380h-104v115h419v-115h-108v-380h108v-124h-419zM306 717q0 21 21 36t50 15t50 -15t21 -35q0 -21 -21 -36t-50 -15t-50 15t-21 36v-1zM83 717q0 21 21 36t50 15t50 -15t21 -35q0 -21 -21 -36t-50 -15t-50 15t-21 36v-1z" />
    <glyph glyph-name="eth" unicode="&#xf0;" horiz-adv-x="956" 
d="M351 125h153q108 0 148 44t40 146q0 99 -45 144t-155 45h-141v-379zM40 1v124h104v379h-104v115h448q129 0 222.5 -30.5t149.5 -100t56 -173.5q0 -157 -110.5 -235.5t-305.5 -78.5h-460zM44 277v81h424v-81h-424z" />
    <glyph glyph-name="ntilde" unicode="&#xf1;" 
d="M40 0v124h104v380h-104v115h303l353 -325v210h-104v115h371v-115h-108v-504h-131l-421 378v-254h108v-124h-371zM409 798q38 0 100.5 -35.5t89.5 -35.5q39 0 52.5 5t39.5 27l35 -52q-51 -55 -133 -55q-39 0 -77 18t-70.5 35.5t-57.5 17.5q-14 0 -21.5 -0.5t-15 -4.5
t-10 -6t-11.5 -11.5t-14 -14.5l-37 54q22 24 58 41t72 17z" />
    <glyph glyph-name="ograve" unicode="&#xf2;" horiz-adv-x="1039" 
d="M264 313q0 -101 72 -152.5t183 -51.5q121 0 189 50.5t68 153.5q0 94 -70 145t-186 51q-119 0 -187.5 -48.5t-68.5 -147.5zM20 313q0 105 67.5 180t178 110t253.5 35t254 -35t178.5 -110t67.5 -180q0 -324 -499 -324q-500 0 -500 324zM424 721l11 97l179 -70l-23 -76z" />
    <glyph glyph-name="oacute" unicode="&#xf3;" horiz-adv-x="1039" 
d="M264 313q0 -101 72 -152.5t183 -51.5q121 0 189 50.5t68 153.5q0 94 -70 145t-186 51q-119 0 -187.5 -48.5t-68.5 -147.5zM20 313q0 105 67.5 180t178 110t253.5 35t254 -35t178.5 -110t67.5 -180q0 -324 -499 -324q-500 0 -500 324zM420 748l179 70l11 -97l-167 -49z
" />
    <glyph glyph-name="ocircumflex" unicode="&#xf4;" horiz-adv-x="1039" 
d="M264 313q0 -101 72 -152.5t183 -51.5q121 0 189 50.5t68 153.5q0 94 -70 145t-186 51q-119 0 -187.5 -48.5t-68.5 -147.5zM20 313q0 105 67.5 180t178 110t253.5 35t254 -35t178.5 -110t67.5 -180q0 -324 -499 -324q-500 0 -500 324zM326 748l179 70l183 -70l-23 -76
l-160 62l-156 -62z" />
    <glyph glyph-name="otilde" unicode="&#xf5;" horiz-adv-x="1039" 
d="M264 313q0 -101 72 -152.5t183 -51.5q121 0 189 50.5t68 153.5q0 94 -70 145t-186 51q-119 0 -187.5 -48.5t-68.5 -147.5zM20 313q0 105 67.5 180t178 110t253.5 35t254 -35t178.5 -110t67.5 -180q0 -324 -499 -324q-500 0 -500 324zM449 798q38 0 100.5 -35.5
t89.5 -35.5q39 0 52.5 5t39.5 27l35 -52q-51 -55 -133 -55q-39 0 -77 18t-70.5 35.5t-57.5 17.5q-14 0 -21.5 -0.5t-15 -4.5t-10 -6t-11.5 -11.5t-14 -14.5l-37 54q22 24 58 41t72 17z" />
    <glyph glyph-name="odieresis" unicode="&#xf6;" horiz-adv-x="1039" 
d="M264 313q0 -101 72 -152.5t183 -51.5q121 0 189 50.5t68 153.5q0 94 -70 145t-186 51q-119 0 -187.5 -48.5t-68.5 -147.5zM20 313q0 105 67.5 180t178 110t253.5 35t254 -35t178.5 -110t67.5 -180q0 -324 -499 -324q-500 0 -500 324zM566 717q0 21 21 36t50 15t50 -15
t21 -35q0 -21 -21 -36t-50 -15t-50 15t-21 36v-1zM343 717q0 21 21 36t50 15t50 -15t21 -35q0 -21 -21 -36t-50 -15t-50 15t-21 36v-1z" />
    <glyph glyph-name="divide" unicode="&#xf7;" horiz-adv-x="600" 
d="M76 263v110h448v-110h-448zM203 503q0 33 29 56t69 23q39 0 68 -23t29 -56t-29.5 -54.5t-67.5 -21.5q-39 0 -68.5 21.5t-29.5 54.5zM203 135q0 33 29 56.5t69 23.5q39 0 68 -23.5t29 -56.5t-29 -54t-68 -21t-68.5 21t-29.5 54z" />
    <glyph glyph-name="ugrave" unicode="&#xf9;" 
d="M40 504v115h419v-115h-108v-284q0 -57 40 -83t129 -26q30 0 45 0.5t39.5 3.5t37.5 10t27.5 18.5t20.5 31t6 46.5v283h-104v115h371v-115h-108v-308q0 -30 -10 -58.5t-34.5 -57.5t-62 -51t-98 -35.5t-135.5 -13.5q-93 0 -167 20.5t-117 53t-65 69.5t-22 73v308h-104z
M424 721l11 97l179 -70l-23 -76z" />
    <glyph glyph-name="uacute" unicode="&#xfa;" 
d="M40 504v115h419v-115h-108v-284q0 -57 40 -83t129 -26q30 0 45 0.5t39.5 3.5t37.5 10t27.5 18.5t20.5 31t6 46.5v283h-104v115h371v-115h-108v-308q0 -30 -10 -58.5t-34.5 -57.5t-62 -51t-98 -35.5t-135.5 -13.5q-93 0 -167 20.5t-117 53t-65 69.5t-22 73v308h-104z
M420 748l179 70l11 -97l-167 -49z" />
    <glyph glyph-name="ucircumflex" unicode="&#xfb;" 
d="M40 504v115h419v-115h-108v-284q0 -57 40 -83t129 -26q30 0 45 0.5t39.5 3.5t37.5 10t27.5 18.5t20.5 31t6 46.5v283h-104v115h371v-115h-108v-308q0 -30 -10 -58.5t-34.5 -57.5t-62 -51t-98 -35.5t-135.5 -13.5q-93 0 -167 20.5t-117 53t-65 69.5t-22 73v308h-104z
M336 748l179 70l183 -70l-23 -76l-160 62l-156 -62z" />
    <glyph glyph-name="udieresis" unicode="&#xfc;" 
d="M40 504v115h419v-115h-108v-284q0 -57 40 -83t129 -26q30 0 45 0.5t39.5 3.5t37.5 10t27.5 18.5t20.5 31t6 46.5v283h-104v115h371v-115h-108v-308q0 -30 -10 -58.5t-34.5 -57.5t-62 -51t-98 -35.5t-135.5 -13.5q-93 0 -167 20.5t-117 53t-65 69.5t-22 73v308h-104z
M586 717q0 21 21 36t50 15t50 -15t21 -35q0 -21 -21 -36t-50 -15t-50 15t-21 36v-1zM363 717q0 21 21 36t50 15t50 -15t21 -35q0 -21 -21 -36t-50 -15t-50 15t-21 36v-1z" />
    <glyph glyph-name="yacute" unicode="&#xfd;" horiz-adv-x="967" 
d="M10 503v115h371v-115h-34l154 -153l144 153h-59v115h371v-115h-122l-250 -268v-111h108v-124h-419v124h104v100l-286 279h-82zM420 748l179 70l11 -97l-167 -49z" />
    <glyph glyph-name="ydieresis" unicode="&#xff;" horiz-adv-x="967" 
d="M10 503v115h371v-115h-34l154 -153l144 153h-59v115h371v-115h-122l-250 -268v-111h108v-124h-419v124h104v100l-286 279h-82zM536 717q0 21 21 36t50 15t50 -15t21 -35q0 -21 -21 -36t-50 -15t-50 15t-21 36v-1zM313 717q0 21 21 36t50 15t50 -15t21 -35q0 -21 -21 -36
t-50 -15t-50 15t-21 36v-1z" />
    <glyph glyph-name="dotlessi" unicode="&#x131;" horiz-adv-x="499" 
d="M40 0v124h104v380h-104v115h419v-115h-108v-380h108v-124h-419z" />
    <glyph glyph-name="Lslash" unicode="&#x141;" horiz-adv-x="861" 
d="M42 300l416 142v-118l-416 -144v120zM40 0v124h104v380h-104v115h419v-115h-108v-380h332v117h138v-241h-781z" />
    <glyph glyph-name="Scaron" unicode="&#x160;" horiz-adv-x="822" 
d="M410 518q-85 0 -116 -12t-31 -49q0 -8 5.5 -14t18 -10t22.5 -6.5t30 -5.5q28 -5 75.5 -10t85 -9.5t82.5 -13t78 -23.5t62.5 -38t44.5 -60.5t15 -86.5q0 -95 -92 -148.5t-276 -53.5q-149 0 -236 45v-27h-138v251h138v-36q0 -30 24 -51t63.5 -32t80.5 -15.5t85 -4.5
q54 0 99 14.5t45 43.5q0 13 -4.5 22t-16 14.5t-24 9t-35 6t-43 4t-53.5 4.5t-61 7q-40 5 -77 15t-88.5 31.5t-83 62t-31.5 94.5q0 49 21.5 87t54.5 61t78 38t87.5 20.5t86.5 5.5q67 0 140 -20t111 -47v49h138v-241h-138v36q0 44 -72.5 68.5t-154.5 24.5zM266 742l13 76
l176 -62l180 62l13 -76l-193 -70z" />
    <glyph glyph-name="scaron" unicode="&#x161;" horiz-adv-x="822" 
d="M410 518q-85 0 -116 -12t-31 -49q0 -8 5.5 -14t18 -10t22.5 -6.5t30 -5.5q28 -5 75.5 -10t85 -9.5t82.5 -13t78 -23.5t62.5 -38t44.5 -60.5t15 -86.5q0 -95 -92 -148.5t-276 -53.5q-149 0 -236 45v-27h-138v251h138v-36q0 -30 24 -51t63.5 -32t80.5 -15.5t85 -4.5
q54 0 99 14.5t45 43.5q0 13 -4.5 22t-16 14.5t-24 9t-35 6t-43 4t-53.5 4.5t-61 7q-40 5 -77 15t-88.5 31.5t-83 62t-31.5 94.5q0 49 21.5 87t54.5 61t78 38t87.5 20.5t86.5 5.5q67 0 140 -20t111 -47v49h138v-241h-138v36q0 44 -72.5 68.5t-154.5 24.5zM266 742l13 76
l176 -62l180 62l13 -76l-193 -70z" />
    <glyph glyph-name="Ydieresis" unicode="&#x178;" horiz-adv-x="967" 
d="M10 503v115h371v-115h-34l154 -153l144 153h-59v115h371v-115h-122l-250 -268v-111h108v-124h-419v124h104v100l-286 279h-82zM536 717q0 21 21 36t50 15t50 -15t21 -35q0 -21 -21 -36t-50 -15t-50 15t-21 36v-1zM313 717q0 21 21 36t50 15t50 -15t21 -35q0 -21 -21 -36
t-50 -15t-50 15t-21 36v-1z" />
    <glyph glyph-name="Zcaron" unicode="&#x17d;" horiz-adv-x="921" 
d="M40 0v114l520 390h-355v-125h-138v240h781v-104l-487 -391h382v117h138v-241h-841zM266 742l13 76l176 -62l180 62l13 -76l-193 -70z" />
    <glyph glyph-name="zcaron" unicode="&#x17e;" horiz-adv-x="921" 
d="M40 0v114l520 390h-355v-125h-138v240h781v-104l-487 -391h382v117h138v-241h-841zM266 742l13 76l176 -62l180 62l13 -76l-193 -70z" />
    <glyph glyph-name="circumflex" unicode="&#x2c6;" 
d="M276 748l179 70l183 -70l-23 -76l-160 62l-156 -62z" />
    <glyph glyph-name="caron" unicode="&#x2c7;" 
d="M266 742l13 76l176 -62l180 62l13 -76l-193 -70z" />
    <glyph glyph-name="breve" unicode="&#x2d8;" 
d="M368 773q0 -29 26.5 -49t68.5 -20t68 20t26 49h57q0 -63 -41.5 -102t-110.5 -39q-70 0 -110.5 39t-40.5 102h57z" />
    <glyph glyph-name="tilde" unicode="&#x2dc;" 
d="M409 798q38 0 100.5 -35.5t89.5 -35.5q39 0 52.5 5t39.5 27l35 -52q-51 -55 -133 -55q-39 0 -77 18t-70.5 35.5t-57.5 17.5q-14 0 -21.5 -0.5t-15 -4.5t-10 -6t-11.5 -11.5t-14 -14.5l-37 54q22 24 58 41t72 17z" />
    <glyph glyph-name="endash" unicode="&#x2013;" horiz-adv-x="500" 
d="M26 277v81h448v-81h-448z" />
    <glyph glyph-name="emdash" unicode="&#x2014;" horiz-adv-x="1000" 
d="M6 277v81h988v-81h-988z" />
    <glyph glyph-name="quoteleft" unicode="&#x2018;" horiz-adv-x="419" 
d="M356 494q0 -46 -41.5 -78.5t-98.5 -32.5q-58 0 -106 32.5t-47 78.5q0 57 29 98q21 30 51 50.5t90 51.5l72 -67q-13 -6 -34.5 -16t-28.5 -14q49 -7 81.5 -35t32.5 -68z" />
    <glyph glyph-name="quoteright" unicode="&#x2019;" horiz-adv-x="419" 
d="M63 578q0 46 42 78.5t99 32.5t105 -32.5t47 -78.5q0 -57 -29 -98q-21 -30 -51 -50.5t-90 -51.5l-72 67q13 6 34.5 16t28.5 14q-48 7 -81 35t-33 68z" />
    <glyph glyph-name="quotesinglbase" unicode="&#x201a;" horiz-adv-x="419" 
d="M63 78q0 46 42 78.5t99 32.5t104.5 -31.5t47.5 -79.5q0 -57 -29 -98q-21 -30 -51 -50.5t-90 -51.5l-72 67q13 6 34.5 16t28.5 14q-48 7 -81 35t-33 68z" />
    <glyph glyph-name="quotedblleft" unicode="&#x201c;" horiz-adv-x="740" 
d="M679 494q0 -46 -41.5 -78.5t-98.5 -32.5q-58 0 -106 32.5t-47 78.5q0 57 29 98q21 30 51 50.5t90 51.5l72 -67q-13 -6 -34.5 -16t-28.5 -14q49 -7 81.5 -35t32.5 -68zM355 494q0 -46 -41.5 -78.5t-98.5 -32.5q-58 0 -106 32.5t-47 78.5q0 57 29 98q21 30 51 50.5t90 51.5
l72 -67q-13 -6 -34.5 -16t-28.5 -14q49 -7 81.5 -35t32.5 -68z" />
    <glyph glyph-name="quotedblright" unicode="&#x201d;" horiz-adv-x="740" 
d="M61 578q0 46 42 78.5t99 32.5t105 -32.5t47 -78.5q0 -57 -29 -98q-21 -30 -51 -50.5t-90 -51.5l-72 67q13 6 34.5 16t28.5 14q-48 7 -81 35t-33 68zM385 578q0 46 42 78.5t99 32.5t105 -32.5t47 -78.5q0 -57 -29 -98q-21 -30 -51 -50.5t-90 -51.5l-72 67q13 6 34.5 16
t28.5 14q-48 7 -81 35t-33 68z" />
    <glyph glyph-name="quotedblbase" unicode="&#x201e;" horiz-adv-x="740" 
d="M61 78q0 46 42 78.5t99 32.5t104.5 -32t47.5 -79q0 -57 -29 -98q-21 -30 -51 -50.5t-90 -51.5l-72 67q13 6 34.5 16t28.5 14q-48 7 -81 35t-33 68zM385 78q0 46 42 78.5t99 32.5q56 0 104 -31t48 -80q0 -57 -29 -98q-21 -30 -51 -50.5t-90 -51.5l-72 67q13 6 34.5 16
t28.5 14q-48 7 -81 35t-33 68z" />
    <glyph glyph-name="bullet" unicode="&#x2022;" horiz-adv-x="414" 
d="M67 377v35q94 22 119 87h44q9 -37 36.5 -55t80.5 -27v-36q-94 -22 -119 -87h-44q-9 37 -36.5 55.5t-80.5 27.5z" />
    <glyph glyph-name="ellipsis" unicode="&#x2026;" horiz-adv-x="1060" 
d="M719 84q0 44 41.5 74.5t98.5 30.5q58 0 99.5 -30.5t41.5 -74.5q0 -43 -42 -71t-99 -28t-98.5 28t-41.5 71zM389 84q0 44 41.5 74.5t98.5 30.5t99 -30.5t42 -74.5q0 -43 -42 -71t-99 -28t-98.5 28t-41.5 71zM60 84q0 44 41.5 74.5t99.5 30.5q57 0 98.5 -30.5t41.5 -74.5
q0 -43 -41.5 -71t-98.5 -28t-99 28t-42 71z" />
    <glyph glyph-name="perthousand" unicode="&#x2030;" horiz-adv-x="1760" 
d="M185 424q0 -38 22.5 -69t57.5 -31t55 31t19 69q0 105 -74 105q-43 0 -61.5 -30t-18.5 -75zM40 422q0 82 68 135t156 53t154 -53.5t66 -134.5q0 -86 -65 -135.5t-155 -49.5t-157 51.5t-67 133.5zM918 287q-42 0 -66.5 -33.5t-24.5 -79.5q0 -53 23 -86.5t68 -33.5
q41 0 63 31.5t22 72.5q0 129 -85 129zM671 166q0 90 74.5 148t172.5 58q96 0 169 -58.5t73 -147.5q0 -95 -71.5 -149t-170.5 -54q-100 0 -173.5 56t-73.5 147zM220 -76l489 715h195l-474 -715h-210zM1387 167q0 -42 25.5 -77.5t65.5 -35.5t63 35t22 77q0 121 -85 121
q-48 0 -69.5 -34.5t-21.5 -85.5zM1231 166q0 90 74.5 148t172.5 58q96 0 169 -58.5t73 -147.5q0 -95 -71.5 -149t-170.5 -54q-100 0 -173.5 56t-73.5 147z" />
    <glyph glyph-name="guilsinglleft" unicode="&#x2039;" horiz-adv-x="552" 
d="M30 230l373 251l119 -52l-257 -200l257 -200l-119 -51z" />
    <glyph glyph-name="guilsinglright" unicode="&#x203a;" horiz-adv-x="552" 
d="M30 29l257 200l-257 200l119 52l373 -251l-373 -252z" />
    <glyph glyph-name="fraction" unicode="&#x2044;" horiz-adv-x="527" 
d="M-60 60l558 558l89 -89l-558 -558z" />
    <glyph glyph-name="trademark" unicode="&#x2122;" horiz-adv-x="930" 
d="M50 533v96h353v-96h-55v50h-80v-152h53v-50h-187v50h51v152h-80v-50h-55zM417 381v50h41v152h-41v46h103l126 -138l118 137l116 1v-46h-42v-152h42v-50h-168v50h44v81l-108 -130h-17l-109 130v-81h58v-50h-163z" />
    <glyph glyph-name="minus" unicode="&#x2212;" horiz-adv-x="606" 
d="M94 277v81h424v-81h-424z" />
    <glyph glyph-name="approxequal" unicode="&#x2248;" horiz-adv-x="530" 
d="M172 498q38 0 100.5 -35.5t89.5 -35.5q30 0 43.5 1.5t18 2.5t14 11.5t16.5 16.5l35 -52q-51 -55 -133 -55q-39 0 -75 18t-68 35.5t-62 17.5q-14 0 -21.5 -0.5t-15.5 -5t-9.5 -5.5t-11.5 -11.5t-14 -14.5l-37 54q22 24 58 41t72 17zM172 298q38 0 100.5 -35.5t89.5 -35.5
q30 0 43.5 1.5t18 2.5t14 11.5t16.5 16.5l35 -52q-51 -55 -133 -55q-39 0 -75 18t-68 35.5t-62 17.5q-14 0 -21.5 -0.5t-15.5 -5t-9.5 -5.5t-11.5 -11.5t-14 -14.5l-37 54q22 24 58 41t72 17z" />
    <glyph glyph-name="notequal" unicode="&#x2260;" horiz-adv-x="604" 
d="M90 77v106h148l20 69h-168v106h198l37 131h109l-38 -131h118v-106h-147l-20 -69h167v-106h-197l-50 -177h-109l50 177h-118z" />
    <glyph glyph-name="lessequal" unicode="&#x2264;" horiz-adv-x="552" 
d="M30 270l373 291l119 -92l-257 -200l257 -200l-119 -91zM80 -62h448v-81h-448v81z" />
    <glyph glyph-name="greaterequal" unicode="&#x2265;" horiz-adv-x="552" 
d="M36 69l257 200l-257 200l119 92l373 -291l-373 -292zM30 -62h448v-81h-448v81z" />
    <glyph glyph-name="uniF8FF" unicode="&#xf8ff;" horiz-adv-x="1630" 
d="M1390 347q0 -22 17.5 -35t45.5 -13h3v57h64q0 11 -17.5 24t-45.5 13q-67 0 -67 -46zM1105 598h-21l21 -19v19zM1347 440q-164 0 -164 111q0 25 12 47h-14v-147q94 -7 114 -71q14 40 64 60h-12zM1015 510h33v-58h67l-100 90v-32zM742 580l23 17h-23v-17zM1210 180h-21
l21 -19v19zM878 303h71v36h70v-35h20v87h-20v-37h-70v37h-71v-12h68v-61h-68v-15zM767 452h34l-34 32v-32zM426 554q0 -48 63 -48q51 0 66 37v24q0 13 -22 22.5t-48 9.5q-25 0 -42 -11t-17 -34zM883 92h71v35h70v-35h21v88h-21v-38h-70v38h-71v-13h68v-61h-68v-14zM607 303
h89v36h70v-36h21v88h-31v55h-117v-55h-32v-88zM620 452v58h32v88h-30v-51q0 -72 -70 -95h68zM746 92h47v88h-47v-88zM509 92h17l-17 26v-26zM656 92v26l-18 -26h18zM354 452h56q-37 10 -56 29v-29zM349 391v55v-55h-30l22 -42l21 42h-13zM187 391v61h28v44h-37v-105l19 -45
l23 39v6h-33zM264 92h71v35h70v-35h28v88h-28v-37h-70v37h-71v-12h68v-61h-68v-15zM485 241v62h32v88h-70l-84 -150h122zM508 237l80 -92l79 92h-159zM1179 241h238q-103 10 -123 72q-23 -71 -134 -71h-34l53 -53v52zM219 241h86l-45 76zM1485 241h6q5 0 16.5 -1t16.5 -1
q7 0 12 2h-51zM39 391v119h47l92 145l55 15l92 -160q-2 5 -2 13q0 4 1 14.5t1 16.5q0 54 46.5 79.5t117.5 25.5h278v-43h12v43h111v-61h-42l-45 -40l57 -48h45v-58v58h35v88h-32v61h112l54 -52v52h139v-39q22 20 58.5 30.5t77.5 10.5q43 0 78.5 -11t59.5 -36.5t24 -62.5
q0 -35 -16 -61t-44 -38h140v-310h-70v38h-32v-88h40v-64h-168v64h38v88h-32v-38h-69v38h-12v-152h-59l-107 96v-32h33v-64h-530v33l-27 -33h-27l-17 22v-22h-410v64h32v88h-32v61h19l-92 150h-30zM1284 551q0 -23 17 -35.5t46 -12.5q63 0 63 48q0 21 -16.5 33t-46.5 12
q-63 0 -63 -45zM1130 304h31q26 0 34.5 9t8.5 35q0 12 -2 20t-7.5 13.5t-14 7.5t-22.5 2h-28v-87zM170 556h40l-18 37z" />
    <glyph glyph-name="uniFB01" unicode="&#xfb01;" horiz-adv-x="1359" 
d="M40 0v124h104v380h-104v115h781v-240h-138v125h-332v-129h228v-115h-228v-136h108v-124h-419zM900 0v124h104v380h-104v115h419v-115h-108v-380h108v-124h-419z" />
    <glyph glyph-name="uniFB02" unicode="&#xfb02;" horiz-adv-x="1721" 
d="M40 0v124h104v380h-104v115h781v-240h-138v125h-332v-129h228v-115h-228v-136h108v-124h-419zM900 0v124h104v380h-104v115h419v-115h-108v-380h332v117h138v-241h-781z" />
    <glyph glyph-name="NUL" horiz-adv-x="0" 
 />
  </font>
</defs>
</svg>
